<svg xmlns:xlink="http://www.w3.org/1999/xlink" width="424.100625pt" height="236.197031pt" viewBox="0 0 424.100625 236.197031" xmlns="http://www.w3.org/2000/svg" version="1.1"> <defs> <style type="text/css">*{stroke-linejoin: round; stroke-linecap: butt}</style> </defs> <g id="figure_1"> <g id="patch_1"> <path d="M 0 236.197031 L 424.100625 236.197031 L 424.100625 0 L 0 0 z " style="fill: #ffffff"/> </g> <g id="axes_1"> <g id="patch_2"> <path d="M 42.942969 94.907422 L 416.900625 94.907422 L 416.900625 20.038594 L 42.942969 20.038594 z " style="fill: #ffffff"/> </g> <g id="matplotlib.axis_1"> <g id="xtick_1"> <g id="line2d_1"> <defs> <path id="m9dec02bd1d" d="M 0 0 L 0 3.5 " style="stroke: #000000; stroke-width: 0.8"/> </defs> <g> <use xlink:href="#m9dec02bd1d" x="59.941044" y="94.907422" style="stroke: #000000; stroke-width: 0.8"/> </g> </g> </g> <g id="xtick_2"> <g id="line2d_2"> <g> <use xlink:href="#m9dec02bd1d" x="107.15792" y="94.907422" style="stroke: #000000; stroke-width: 0.8"/> </g> </g> </g> <g id="xtick_3"> <g id="line2d_3"> <g> <use xlink:href="#m9dec02bd1d" x="154.374796" y="94.907422" style="stroke: #000000; stroke-width: 0.8"/> </g> </g> </g> <g id="xtick_4"> <g id="line2d_4"> <g> <use xlink:href="#m9dec02bd1d" x="201.591671" y="94.907422" style="stroke: #000000; stroke-width: 0.8"/> </g> </g> </g> <g id="xtick_5"> <g id="line2d_5"> <g> <use xlink:href="#m9dec02bd1d" x="248.808547" y="94.907422" style="stroke: #000000; stroke-width: 0.8"/> </g> </g> </g> <g id="xtick_6"> <g id="line2d_6"> <g> <use xlink:href="#m9dec02bd1d" x="296.025423" y="94.907422" style="stroke: #000000; stroke-width: 0.8"/> </g> </g> </g> <g id="xtick_7"> <g id="line2d_7"> <g> <use xlink:href="#m9dec02bd1d" x="343.242299" y="94.907422" style="stroke: #000000; stroke-width: 0.8"/> </g> </g> </g> <g id="xtick_8"> <g id="line2d_8"> <g> <use xlink:href="#m9dec02bd1d" x="390.459175" y="94.907422" style="stroke: #000000; stroke-width: 0.8"/> </g> </g> </g> </g> <g id="matplotlib.axis_2"> <g id="ytick_1"> <g id="line2d_9"> <defs> <path id="m46471ed658" d="M 0 0 L -3.5 0 " style="stroke: #000000; stroke-width: 0.8"/> </defs> <g> <use xlink:href="#m46471ed658" x="42.942969" y="30.247979" style="stroke: #000000; stroke-width: 0.8"/> </g> </g> <g id="text_1"> <text style="font-size: 10px; font-family: 'Arial', sans-serif; text-anchor: end" x="35.942969" y="34.046808" transform="rotate(-0 35.942969 34.046808)">Ha</text> </g> </g> <g id="ytick_2"> <g id="line2d_10"> <g> <use xlink:href="#m46471ed658" x="42.942969" y="57.473008" style="stroke: #000000; stroke-width: 0.8"/> </g> </g> <g id="text_2"> <text style="font-size: 10px; font-family: 'Arial', sans-serif; text-anchor: end" x="35.942969" y="61.272227" transform="rotate(-0 35.942969 61.272227)">Hb</text> </g> </g> <g id="ytick_3"> <g id="line2d_11"> <g> <use xlink:href="#m46471ed658" x="42.942969" y="84.698036" style="stroke: #000000; stroke-width: 0.8"/> </g> </g> <g id="text_3"> <text style="font-size: 10px; font-family: 'Arial', sans-serif; text-anchor: end" x="35.942969" y="88.496864" transform="rotate(-0 35.942969 88.496864)">Hc</text> </g> </g> </g> <g id="line2d_12"> <path d="M 59.941044 37.054237 L 61.84027 23.441722 L 228.972184 23.441722 L 230.87141 37.054237 L 399.90255 37.054237 L 399.90255 37.054237 " clip-path="url(#p3a3bf541f7)" style="fill: none; stroke: #1c7ed6; stroke-width: 1.6; stroke-linecap: square"/> </g> <g id="line2d_13"> <path d="M 59.941044 64.279265 L 171.995395 64.279265 L 173.894621 50.666751 L 342.925761 50.666751 L 344.824987 64.279265 L 399.90255 64.279265 L 399.90255 64.279265 " clip-path="url(#p3a3bf541f7)" style="fill: none; stroke: #2f9e44; stroke-width: 1.6; stroke-linecap: square"/> </g> <g id="line2d_14"> <path d="M 59.941044 77.891779 L 115.018606 77.891779 L 116.917833 91.504293 L 285.948972 91.504293 L 287.848199 77.891779 L 399.90255 77.891779 L 399.90255 77.891779 " clip-path="url(#p3a3bf541f7)" style="fill: none; stroke: #e8590c; stroke-width: 1.6; stroke-linecap: square"/> </g> <g id="patch_3"> <path d="M 42.942969 94.907422 L 42.942969 20.038594 " style="fill: none; stroke: #000000; stroke-width: 0.8; stroke-linejoin: miter; stroke-linecap: square"/> </g> <g id="patch_4"> <path d="M 416.900625 94.907422 L 416.900625 20.038594 " style="fill: none; stroke: #000000; stroke-width: 0.8; stroke-linejoin: miter; stroke-linecap: square"/> </g> <g id="patch_5"> <path d="M 42.942969 94.907422 L 416.900625 94.907422 " style="fill: none; stroke: #000000; stroke-width: 0.8; stroke-linejoin: miter; stroke-linecap: square"/> </g> <g id="patch_6"> <path d="M 42.942969 20.038594 L 416.900625 20.038594 " style="fill: none; stroke: #000000; stroke-width: 0.8; stroke-linejoin: miter; stroke-linecap: square"/> </g> <g id="text_4"> <text style="font-size: 9px; font-family: 'Arial', sans-serif; text-anchor: middle" x="229.921797" y="14.038594" transform="rotate(-0 229.921797 14.038594)">Hall 120 deg apart</text> </g> </g> <g id="axes_2"> <g id="patch_7"> <path d="M 42.942969 197.99625 L 416.900625 197.99625 L 416.900625 123.127422 L 42.942969 123.127422 z " style="fill: #ffffff"/> </g> <g id="matplotlib.axis_3"> <g id="xtick_9"> <g id="line2d_15"> <g> <use xlink:href="#m9dec02bd1d" x="59.941044" y="197.99625" style="stroke: #000000; stroke-width: 0.8"/> </g> </g> <g id="text_5"> <text style="font-size: 10px; font-family: 'Arial', sans-serif; text-anchor: middle" x="59.941044" y="212.593906" transform="rotate(-0 59.941044 212.593906)">0</text> </g> </g> <g id="xtick_10"> <g id="line2d_16"> <g> <use xlink:href="#m9dec02bd1d" x="107.15792" y="197.99625" style="stroke: #000000; stroke-width: 0.8"/> </g> </g> <g id="text_6"> <text style="font-size: 10px; font-family: 'Arial', sans-serif; text-anchor: middle" x="107.15792" y="212.593906" transform="rotate(-0 107.15792 212.593906)">50</text> </g> </g> <g id="xtick_11"> <g id="line2d_17"> <g> <use xlink:href="#m9dec02bd1d" x="154.374796" y="197.99625" style="stroke: #000000; stroke-width: 0.8"/> </g> </g> <g id="text_7"> <text style="font-size: 10px; font-family: 'Arial', sans-serif; text-anchor: middle" x="154.374796" y="212.593906" transform="rotate(-0 154.374796 212.593906)">100</text> </g> </g> <g id="xtick_12"> <g id="line2d_18"> <g> <use xlink:href="#m9dec02bd1d" x="201.591671" y="197.99625" style="stroke: #000000; stroke-width: 0.8"/> </g> </g> <g id="text_8"> <text style="font-size: 10px; font-family: 'Arial', sans-serif; text-anchor: middle" x="201.591671" y="212.593906" transform="rotate(-0 201.591671 212.593906)">150</text> </g> </g> <g id="xtick_13"> <g id="line2d_19"> <g> <use xlink:href="#m9dec02bd1d" x="248.808547" y="197.99625" style="stroke: #000000; stroke-width: 0.8"/> </g> </g> <g id="text_9"> <text style="font-size: 10px; font-family: 'Arial', sans-serif; text-anchor: middle" x="248.808547" y="212.593906" transform="rotate(-0 248.808547 212.593906)">200</text> </g> </g> <g id="xtick_14"> <g id="line2d_20"> <g> <use xlink:href="#m9dec02bd1d" x="296.025423" y="197.99625" style="stroke: #000000; stroke-width: 0.8"/> </g> </g> <g id="text_10"> <text style="font-size: 10px; font-family: 'Arial', sans-serif; text-anchor: middle" x="296.025423" y="212.593906" transform="rotate(-0 296.025423 212.593906)">250</text> </g> </g> <g id="xtick_15"> <g id="line2d_21"> <g> <use xlink:href="#m9dec02bd1d" x="343.242299" y="197.99625" style="stroke: #000000; stroke-width: 0.8"/> </g> </g> <g id="text_11"> <text style="font-size: 10px; font-family: 'Arial', sans-serif; text-anchor: middle" x="343.242299" y="212.593906" transform="rotate(-0 343.242299 212.593906)">300</text> </g> </g> <g id="xtick_16"> <g id="line2d_22"> <g> <use xlink:href="#m9dec02bd1d" x="390.459175" y="197.99625" style="stroke: #000000; stroke-width: 0.8"/> </g> </g> <g id="text_12"> <text style="font-size: 10px; font-family: 'Arial', sans-serif; text-anchor: middle" x="390.459175" y="212.593906" transform="rotate(-0 390.459175 212.593906)">350</text> </g> </g> <g id="text_13"> <text style="font-size: 10px; font-family: 'Arial', sans-serif; text-anchor: middle" x="229.921797" y="226.594687" transform="rotate(-0 229.921797 226.594687)">Electrical angle [deg]</text> </g> </g> <g id="matplotlib.axis_4"> <g id="ytick_4"> <g id="line2d_23"> <g> <use xlink:href="#m46471ed658" x="42.942969" y="194.593121" style="stroke: #000000; stroke-width: 0.8"/> </g> </g> <g id="text_14"> <text style="font-size: 10px; font-family: 'Arial', sans-serif; text-anchor: end" x="35.942969" y="198.39195" transform="rotate(-0 35.942969 198.39195)">−1</text> </g> </g> <g id="ytick_5"> <g id="line2d_24"> <g> <use xlink:href="#m46471ed658" x="42.942969" y="160.561836" style="stroke: #000000; stroke-width: 0.8"/> </g> </g> <g id="text_15"> <text style="font-size: 10px; font-family: 'Arial', sans-serif; text-anchor: end" x="35.942969" y="164.360664" transform="rotate(-0 35.942969 164.360664)">0</text> </g> </g> <g id="ytick_6"> <g id="line2d_25"> <g> <use xlink:href="#m46471ed658" x="42.942969" y="126.53055" style="stroke: #000000; stroke-width: 0.8"/> </g> </g> <g id="text_16"> <text style="font-size: 10px; font-family: 'Arial', sans-serif; text-anchor: end" x="35.942969" y="130.329379" transform="rotate(-0 35.942969 130.329379)">1</text> </g> </g> <g id="text_17"> <text style="font-size: 10px; font-family: 'Arial', sans-serif; text-anchor: middle" x="14.798437" y="160.561836" transform="rotate(-90 14.798437 160.561836)">Iabc</text> </g> </g> <g id="line2d_26"> <path d="M 59.941044 126.53055 L 171.995395 126.53055 L 173.894621 160.561836 L 228.972184 160.561836 L 230.87141 194.593121 L 342.925761 194.593121 L 344.824987 160.561836 L 398.003323 160.561836 L 399.90255 126.53055 L 399.90255 126.53055 " clip-path="url(#pf8b6fb5172)" style="fill: none; stroke: #1c7ed6; stroke-width: 1.6; stroke-linecap: square"/> </g> <g id="line2d_27"> <path d="M 59.941044 194.593121 L 115.018606 194.593121 L 116.917833 160.561836 L 171.995395 160.561836 L 173.894621 126.53055 L 285.948972 126.53055 L 287.848199 160.561836 L 342.925761 160.561836 L 344.824987 194.593121 L 399.90255 194.593121 L 399.90255 194.593121 " clip-path="url(#pf8b6fb5172)" style="fill: none; stroke: #2f9e44; stroke-width: 1.6; stroke-linecap: square"/> </g> <g id="line2d_28"> <path d="M 59.941044 160.561836 L 115.018606 160.561836 L 116.917833 194.593121 L 228.972184 194.593121 L 230.87141 160.561836 L 285.948972 160.561836 L 287.848199 126.53055 L 398.003323 126.53055 L 399.90255 160.561836 L 399.90255 160.561836 " clip-path="url(#pf8b6fb5172)" style="fill: none; stroke: #e8590c; stroke-width: 1.6; stroke-linecap: square"/> </g> <g id="patch_8"> <path d="M 42.942969 197.99625 L 42.942969 123.127422 " style="fill: none; stroke: #000000; stroke-width: 0.8; stroke-linejoin: miter; stroke-linecap: square"/> </g> <g id="patch_9"> <path d="M 416.900625 197.99625 L 416.900625 123.127422 " style="fill: none; stroke: #000000; stroke-width: 0.8; stroke-linejoin: miter; stroke-linecap: square"/> </g> <g id="patch_10"> <path d="M 42.942969 197.99625 L 416.900625 197.99625 " style="fill: none; stroke: #000000; stroke-width: 0.8; stroke-linejoin: miter; stroke-linecap: square"/> </g> <g id="patch_11"> <path d="M 42.942969 123.127422 L 416.900625 123.127422 " style="fill: none; stroke: #000000; stroke-width: 0.8; stroke-linejoin: miter; stroke-linecap: square"/> </g> <g id="text_18"> <text style="font-size: 9px; font-family: 'Arial', sans-serif; text-anchor: middle" x="229.921797" y="117.127422" transform="rotate(-0 229.921797 117.127422)">6-step phase current</text> </g> </g> </g> <defs> <clipPath id="p3a3bf541f7"> <rect x="42.942969" y="20.038594" width="373.957656" height="74.868828"/> </clipPath> <clipPath id="pf8b6fb5172"> <rect x="42.942969" y="123.127422" width="373.957656" height="74.868828"/> </clipPath> </defs> </svg>